<?xml version="1.0" standalone="no"?>
<!DOCTYPE svg PUBLIC "-//W3C//DTD SVG 20010904//EN"
 "http://www.w3.org/TR/2001/REC-SVG-20010904/DTD/svg10.dtd">
<svg version="1.0" xmlns="http://www.w3.org/2000/svg"
 width="700.000000pt" height="700.000000pt" viewBox="0 0 700.000000 700.000000"
 preserveAspectRatio="xMidYMid meet">
<metadata>
Created by potrace 1.11, written by Peter Selinger 2001-2013
</metadata>
<g transform="translate(0.000000,700.000000) scale(0.100000,-0.100000)"
fill="#000000" stroke="none">
<path d="M0 3500 l0 -3500 3500 0 3500 0 0 3500 0 3500 -3500 0 -3500 0 0
-3500z m6561 3050 c0 -8 1 -1386 2 -3063 2 -3041 2 -3047 -18 -3048 -113 -5
-6097 -1 -6102 4 -4 5 -9 6087 -4 6117 1 3 1378 5 3061 5 2713 0 3060 -2 3061
-15z"/>
<path d="M3413 5448 c-51 -22 -108 -86 -121 -138 -12 -49 -6 -113 15 -158 10
-22 340 -358 825 -844 l808 -808 -808 -808 c-534 -535 -814 -821 -827 -848
-35 -73 -23 -172 30 -233 65 -75 177 -98 263 -53 51 27 1822 1793 1848 1844
24 45 26 128 6 181 -14 33 -199 224 -918 942 -595 596 -913 907 -940 920 -51
25 -128 26 -181 3z"/>
<path d="M1706 3712 c-55 -7 -129 -66 -152 -122 -21 -48 -25 -97 -12 -150 14
-56 86 -130 143 -147 29 -9 267 -12 960 -10 l920 2 40 26 c56 37 81 67 98 120
28 82 7 166 -57 228 -63 61 -37 60 -1018 58 -491 0 -906 -3 -922 -5z"/>
</g>
</svg>
